<svg xmlns="http://www.w3.org/2000/svg" version="1.1" xmlns:xlink="http://www.w3.org/1999/xlink" width="1500" height="1500" viewBox="0 0 1500 1500"><rect width="1500" height="1500" x="0" y="0" id="background" stroke="transparent" fill="#cfcfcf"></rect><svg xml:space="preserve" width="1000" height="1000" data-version="2" data-id="lg_yHpHkJvmCDQw5BmKH9" viewBox="0 0 565 158" x="250" y="250"><rect width="100%" height="100%" fill="transparent"></rect><path fill="#4b4b4b" d="M184.905 112.42q7.25 0 12.59-2.89t8.87-8.58l-6.37-4.02q-2.45 4.12-5.98 6.13-3.52 2.01-8.13 2.01-4.61 0-7.84-1.96-3.23-1.96-4.9-5.69-1.67-3.72-1.67-9.01.1-5.2 1.82-8.77 1.71-3.58 4.9-5.49 3.18-1.91 7.69-1.91 3.82 0 6.66 1.66 2.85 1.67 4.46 4.61 1.62 2.94 1.62 6.96 0 .68-.29 1.71-.3 1.03-.59 1.52l3.13-4.51h-32.34v6.67h38.52q0-.2.05-.93.05-.74.05-1.42 0-7.16-2.55-12.35-2.55-5.2-7.3-7.99-4.76-2.79-11.42-2.79t-11.71 2.94q-5.05 2.94-7.84 8.23-2.79 5.29-2.79 12.35 0 6.96 2.69 12.25 2.7 5.29 7.55 8.28 4.85 2.99 11.12 2.99"></path><rect width="43.61" height="47.04" x="-21.8" y="-23.52" fill="none" rx="0" ry="0" transform="translate(185.85 89.4)"></rect><path fill="#4b4b4b" d="M217.935 35v76.44h7.84V35Z"></path><rect width="7.84" height="76.44" x="-3.92" y="-38.22" fill="none" rx="0" ry="0" transform="translate(222.35 73.72)"></rect><path fill="#4b4b4b" d="M257.915 112.42q7.25 0 12.59-2.89t8.87-8.58l-6.37-4.02q-2.45 4.12-5.98 6.13-3.52 2.01-8.13 2.01-4.61 0-7.84-1.96-3.23-1.96-4.9-5.69-1.67-3.72-1.67-9.01.1-5.2 1.82-8.77 1.71-3.58 4.9-5.49 3.18-1.91 7.69-1.91 3.82 0 6.66 1.66 2.85 1.67 4.46 4.61 1.62 2.94 1.62 6.96 0 .68-.29 1.71-.3 1.03-.59 1.52l3.13-4.51h-32.34v6.67h38.52q0-.2.05-.93.05-.74.05-1.42 0-7.16-2.55-12.35-2.55-5.2-7.3-7.99-4.76-2.79-11.42-2.79t-11.71 2.94q-5.05 2.94-7.84 8.23-2.79 5.29-2.79 12.35 0 6.96 2.69 12.25 2.7 5.29 7.55 8.28 4.85 2.99 11.12 2.99"></path><rect width="43.61" height="47.04" x="-21.8" y="-23.52" fill="none" rx="0" ry="0" transform="translate(258.86 89.4)"></rect><path fill="#4b4b4b" d="M294.465 88.9q0-4.71 2.01-8.38 2.01-3.68 5.49-5.73 3.48-2.06 7.89-2.06 3.63 0 6.81 1.13 3.19 1.12 5.54 2.98 2.35 1.87 3.33 4.12v-9.8q-2.35-2.74-6.71-4.26-4.36-1.52-8.97-1.52-6.57 0-11.86 3.04-5.29 3.03-8.38 8.33-3.08 5.29-3.08 12.15 0 6.76 3.08 12.1 3.09 5.34 8.38 8.38 5.29 3.04 11.86 3.04 4.61 0 8.97-1.52t6.71-4.26v-9.8q-.98 2.15-3.33 4.06-2.35 1.91-5.54 3.04-3.18 1.13-6.81 1.13-4.41 0-7.89-2.11-3.48-2.11-5.49-5.73-2.01-3.63-2.01-8.33"></path><rect width="39" height="47.04" x="-19.5" y="-23.52" fill="none" rx="0" ry="0" transform="translate(306.54 89.4)"></rect><path fill="#4b4b4b" d="M330.925 66.36v7.35h22.54v-7.35Zm7.35-15.68v60.76h7.84V50.68Z"></path><rect width="22.54" height="60.76" x="-11.27" y="-30.38" fill="none" rx="0" ry="0" transform="translate(342.7 81.56)"></rect><path fill="#4b4b4b" d="M369.145 66.36h-7.84v45.08h7.84Zm13.62 8.62 4.31-6.47q-1.76-1.86-3.87-2.49-2.1-.64-4.55-.64-3.14 0-6.18 2.45-3.04 2.45-4.95 6.61-1.91 4.17-1.91 9.56h3.53q0-3.24.64-5.78.63-2.55 2.3-4.02 1.67-1.47 4.61-1.47 1.96 0 3.23.54t2.84 1.71"></path><rect width="25.77" height="46.06" x="-12.88" y="-23.03" fill="none" rx="0" ry="0" transform="translate(374.69 88.91)"></rect><path fill="#4b4b4b" d="M389.525 88.9q0 6.76 3.09 12.1t8.38 8.38q5.29 3.04 11.86 3.04 6.66 0 11.91-3.04 5.24-3.04 8.33-8.38 3.08-5.34 3.08-12.1 0-6.86-3.08-12.15-3.09-5.3-8.33-8.33-5.25-3.04-11.91-3.04-6.57 0-11.86 3.04-5.29 3.03-8.38 8.33-3.09 5.29-3.09 12.15m7.94 0q0-4.71 2.01-8.38 2.01-3.68 5.49-5.73 3.48-2.06 7.89-2.06t7.89 2.06q3.48 2.05 5.49 5.73 2 3.67 2 8.38 0 4.7-2 8.33-2.01 3.62-5.49 5.73-3.48 2.11-7.89 2.11t-7.89-2.11q-3.48-2.11-5.49-5.73-2.01-3.63-2.01-8.33"></path><rect width="46.65" height="47.04" x="-23.32" y="-23.52" fill="none" rx="0" ry="0" transform="translate(413.35 89.4)"></rect><path fill="#4b4b4b" d="M475.865 84v27.44h7.84V83.02q0-8.14-4.16-12.89-4.17-4.75-11.32-4.75-4.41 0-7.79 1.96t-5.64 6.07v-7.05h-7.84v45.08h7.84V84q0-3.33 1.42-5.88t4.02-3.97q2.6-1.42 6.03-1.42 4.7 0 7.15 2.84t2.45 8.43"></path><rect width="36.75" height="46.06" x="-18.38" y="-23.03" fill="none" rx="0" ry="0" transform="translate(465.83 88.91)"></rect><path fill="#4b4b4b" d="M498.405 47.74q0 2.15 1.62 3.77t3.77 1.62q2.26 0 3.82-1.62 1.57-1.62 1.57-3.77 0-2.26-1.57-3.82-1.56-1.57-3.82-1.57-2.15 0-3.77 1.57-1.62 1.56-1.62 3.82m1.47 18.62v45.08h7.84V66.36Z"></path><rect width="10.78" height="69.09" x="-5.39" y="-34.55" fill="none" rx="0" ry="0" transform="translate(504.3 77.4)"></rect><path fill="#4b4b4b" d="M527.415 88.9q0-4.71 2.01-8.38 2.01-3.68 5.49-5.73 3.48-2.06 7.89-2.06 3.62 0 6.81 1.13 3.18 1.12 5.53 2.98 2.36 1.87 3.34 4.12v-9.8q-2.36-2.74-6.72-4.26-4.36-1.52-8.96-1.52-6.57 0-11.86 3.04-5.29 3.03-8.38 8.33-3.09 5.29-3.09 12.15 0 6.76 3.09 12.1t8.38 8.38q5.29 3.04 11.86 3.04 4.6 0 8.96-1.52 4.36-1.52 6.72-4.26v-9.8q-.98 2.15-3.34 4.06-2.35 1.91-5.53 3.04-3.19 1.13-6.81 1.13-4.41 0-7.89-2.11-3.48-2.11-5.49-5.73-2.01-3.63-2.01-8.33"></path><rect width="39.01" height="47.04" x="-19.5" y="-23.52" fill="none" rx="0" ry="0" transform="translate(539.48 89.4)"></rect><path fill="#4b4b4b" d="m62.964 93.618-.05 17.756-12.407-12.408V81.16zm17.995-.289-17.448.05-12.577-12.577h17.498zm0-25.6L68.432 80.246H50.815l12.577-12.577zM49.949 81.11v17.617l-12.635 12.646-.06-17.567zm13.015-13.8L50.507 79.768V62.082l12.407-12.408zM49.95 62.32v17.497L37.254 67.132l.06-17.458zm-.358 17.925H31.786L19.259 67.729l17.756-.06zm-.12.556L36.897 93.38l-17.637-.05 12.527-12.527zm14.039 13.124h17.945v17.945H63.511zm17.945-44.75v17.946H63.511V49.177zm-44.749 17.4v.546H18.762V49.177h17.945zm-17.945 27.35h17.945v17.945H18.762zm50.154-12.902L81.598 68.34l12.683 12.682-12.682 12.683zM37.214 49.32l12.682-12.682L62.578 49.32 49.896 62.003zM5.516 81.023 18.198 68.34 30.88 81.022 18.198 93.705zm31.691 31.701 12.682-12.683 12.682 12.682-12.682 12.683z"></path><path fill="#4f4f4f" stroke="#4b4b4b" stroke-width="4.18" d="M126.694 1.385v155.23"></path></svg></svg>